<svg id="Layer_1" enable-background="new 0 0 512 512" height="512" viewBox="0 0 512 512" width="512" xmlns="http://www.w3.org/2000/svg"><g><g><path clip-rule="evenodd" d="m188.712 477.202 9.893-21.77-9.893-30.388c-19.842 7.398-35.007 21.43-35.007 43.484 0 27.014 29.451 28.744 35.007 8.674z" fill="#95d6a4" fill-rule="evenodd"/></g><g><path clip-rule="evenodd" d="m358.362 468.528c0-22.054-15.165-36.085-35.007-43.484l-11.678 29.14 11.678 23.017c5.555 20.071 35.007 18.341 35.007-8.673z" fill="#95d6a4" fill-rule="evenodd"/></g><g><path clip-rule="evenodd" d="m222.16 365.29c-69.135-117.071-56.181-356.571 33.873-357.79-199.923 0-223.421 248.486-77.186 357.79h16.526z" fill="#95d6a4" fill-rule="evenodd"/></g><g><path clip-rule="evenodd" d="m333.247 365.29c146.236-109.304 122.709-357.79-77.214-357.79 84.697 6.605 93.286 249.28 33.873 357.79h26.815z" fill="#ccf49e" fill-rule="evenodd"/></g><g><path clip-rule="evenodd" d="m333.247 365.29c146.236-109.304 122.709-357.79-77.214-357.79 12.529 0 23.839 3.487 33.873 9.865 139.32 47.197 142.267 251.604 13.408 347.926h13.408 16.525z" fill="#b3e59e" fill-rule="evenodd"/></g><g><path clip-rule="evenodd" d="m289.906 365.29c88.921-118.857 69.703-357.79-33.873-357.79l-18.396 177.591 18.396 180.199h18.396z" fill="#95d6a4" fill-rule="evenodd"/></g><g><path clip-rule="evenodd" d="m256.033 365.29v-357.79c-103.547 0-122.794 238.933-33.873 357.79h15.477z" fill="#ccf49e" fill-rule="evenodd"/></g><g><path clip-rule="evenodd" d="m188.712 461.271c-5.017 18.057-29.366 18.454-34.185-1.332-.539 2.721-.822 5.584-.822 8.589 0 27.014 29.451 28.743 35.007 8.674z" fill="#78c2a4" fill-rule="evenodd"/></g><g><path clip-rule="evenodd" d="m323.355 477.202c5.556 20.069 35.007 18.34 35.007-8.674 0-3.005-.283-5.868-.822-8.589-4.819 19.786-29.168 19.389-34.185 1.332z" fill="#78c2a4" fill-rule="evenodd"/></g><g><path clip-rule="evenodd" d="m188.712 425.045v52.158 4.932c0 12.302 10.063 22.365 22.336 22.365h89.969c12.274 0 22.336-10.063 22.336-22.365v-4.932-52.158z" fill="#ffd772" fill-rule="evenodd"/></g><g><path clip-rule="evenodd" d="m323.355 477.202v-52.158h-6.633-19.218v52.158 4.932c0 12.302-10.063 22.365-22.365 22.365h25.88c12.274 0 22.336-10.063 22.336-22.365z" fill="#fdb440" fill-rule="evenodd"/></g><path d="m333.247 372.79c1.619 0 3.194-.523 4.49-1.492 40.635-30.373 70.289-72.15 85.755-120.816 14.575-45.862 14.948-94.143 1.051-135.947-11.232-33.788-31.462-62.054-58.503-81.742-29.885-21.76-66.896-32.793-110.007-32.793-59.561 0-108.05 21.366-140.227 61.79-2.58 3.241-2.043 7.959 1.197 10.539 3.24 2.578 7.959 2.043 10.539-1.197 19.53-24.535 45.854-41.33 77.523-49.783-8.742 8.466-16.51 19.39-23.158 32.666-19.57 39.081-27.663 95.513-22.203 154.824 5.241 56.939 22.183 109.197 48.08 148.951h-26.423c-89.18-68.124-106.836-183.891-72.156-257.167 1.772-3.743.174-8.215-3.57-9.987-3.742-1.77-8.215-.173-9.988 3.571-20.158 42.592-23.845 94.045-10.381 144.881 13.977 52.771 45.617 99.724 89.091 132.21 1.296.969 2.871 1.492 4.489 1.492h9.025v44.803c-.048.005-.095.017-.142.023-.232.03-.461.07-.686.121-.071.016-.141.036-.211.054-.212.055-.42.118-.624.19-.039.014-.078.021-.117.036-25.721 9.591-39.887 27.529-39.887 50.511 0 18.273 11.214 27.977 22.328 29.486 1.114.151 2.22.226 3.314.226 4.388 0 8.571-1.203 12.23-3.348 4.791 10.103 15.078 17.108 26.972 17.108h27.467c4.142 0 7.5-3.357 7.5-7.5s-3.358-7.5-7.5-7.5h-27.467c-8.181 0-14.836-6.669-14.836-14.865v-49.59h119.643v49.59c0 8.196-6.656 14.865-14.836 14.865h-27.864c-4.142 0-7.5 3.357-7.5 7.5s3.358 7.5 7.5 7.5h27.864c11.894 0 22.182-7.005 26.971-17.108 3.66 2.145 7.842 3.348 12.231 3.348 1.094 0 2.201-.074 3.314-.226 11.114-1.51 22.328-11.213 22.328-29.486 0-22.981-14.166-40.92-39.887-50.511-.039-.015-.079-.022-.118-.036-.201-.071-.406-.133-.614-.188-.076-.02-.151-.041-.227-.058-.213-.048-.43-.085-.65-.115-.048-.007-.096-.02-.144-.025v-44.805zm-152.035 103.286c-1.945 5.614-6.672 7.617-10.66 7.075-4.519-.613-9.347-4.777-9.347-14.623 0-15.827 9.445-25.682 20.007-31.753zm149.643-39.301c10.562 6.071 20.007 15.926 20.007 31.753 0 9.846-4.828 14.01-9.347 14.623-3.991.541-8.716-1.461-10.66-7.075zm-100.718-19.23h-27.264v-44.755h27.264zm-4.179-59.755c-60.716-84.301-66.481-225.48-30.638-297.06 9.582-19.136 26.38-41.628 53.213-45.221v342.281zm40.972 59.755h-21.793v-44.755h21.793zm-3.397-59.755v-342.281c26.842 3.593 43.643 26.087 53.227 45.224 35.84 71.573 30.068 212.75-30.652 297.057zm45.689 59.755h-27.292v-44.755h27.292zm-4.94-59.755c25.898-39.755 42.843-92.012 48.087-148.949 5.463-59.312-2.627-115.743-22.196-154.823-6.622-13.224-14.357-24.115-23.058-32.567 49.933 13.434 86.452 47.45 103.195 97.815 27.382 82.37-6.074 182.266-79.579 238.524z"/></g></svg>