<svg id="Layer_1" enable-background="new 0 0 512 512" height="512" viewBox="0 0 512 512" width="512" xmlns="http://www.w3.org/2000/svg"><g><g><path clip-rule="evenodd" d="m311.12 435.708c16.101-20.127-36.907-72.626 11.48-78.069-166.451-95.672-48.331-94.737-315.1-47.028v189.247h92.608c13.805-2.041 159.591 0 211.012-64.15z" fill="#ce9874" fill-rule="evenodd"/></g><g><path clip-rule="evenodd" d="m347.318 357.639c-26.787 0-31.351 32.741-11.254 51.139 34.299 31.352 31.862 91.08-103.38 91.08h271.816v-142.219c-58.309 0-75.062 0-157.182 0z" fill="#ce9874" fill-rule="evenodd"/></g><g><path clip-rule="evenodd" d="m252.669 499.858c135.27 0 137.679-59.728 103.408-91.08-20.126-18.397-15.534-51.139 11.254-51.139l-23.074-8.391-21.657 8.391c-48.388 5.443-25.399 57.942-41.499 78.069-51.392 64.15-207.185 62.109-220.99 64.15z" fill="#90d8f9" fill-rule="evenodd"/></g><g><path clip-rule="evenodd" d="m252.669 499.858c135.27 0 137.679-59.728 103.408-91.08-20.126-18.397-15.534-51.139 11.254-51.139h-16.639c-26.787 0-37.729 39.119-17.603 57.517 34.271 31.352 11.735 69.281-115.427 84.702z" fill="#75cef8" fill-rule="evenodd"/></g><g><path clip-rule="evenodd" d="m105.919 416.432c-.255-9.723 0-84.418-34.214-84.418-26.958 0-34.186 65.936-34.186 84.418 0 11.339 9.269 20.609 20.608 20.609h13.351 13.833c11.339-.001 20.863-9.27 20.608-20.609z" fill="#ccf49e" fill-rule="evenodd"/></g><g><path clip-rule="evenodd" d="m460.96 79.921c0-12.898-10.46-23.387-23.386-23.387s-23.386 10.489-23.386 23.387c0 12.926 10.46 23.387 23.386 23.387 12.926-.001 23.386-10.461 23.386-23.387z" fill="#ffd772" fill-rule="evenodd"/></g><g><path clip-rule="evenodd" d="m105.919 416.432c-.255-9.723 0-84.418-34.214-84.418-4.819 0-9.014 2.126-12.671 5.698 19.616 17.632 19.474 70.613 19.673 78.72.142 6.293-2.721 11.934-7.228 15.733-3.628 3.033-8.306 4.876-13.351 4.876h13.351 13.833c11.338-.001 20.862-9.27 20.607-20.609z" fill="#b3e59e" fill-rule="evenodd"/></g><g><path clip-rule="evenodd" d="m229.667 303.127 36.184-98.79-76.309-91.732c-5.754-6.945-11.594-6.945-17.376 0l-92.779 111.547-71.887 86.459h137.311z" fill="#95d6a4" fill-rule="evenodd"/></g><g><path clip-rule="evenodd" d="m265.85 204.337-76.309-91.732c-5.754-6.945-11.594-6.945-17.376 0l-22.904 27.554c19.956 17.887 42.095 73.164 30.643 124.445 9.95 2.466 16.441 11.991 20.721 23.84z" fill="#78c2a4" fill-rule="evenodd"/></g><g><path clip-rule="evenodd" d="m208.902 348.398c-.142-6.038-.113-37.248-8.277-59.955-4.989-13.805-12.983-24.464-25.909-24.464-16.158 0-25.228 23.67-29.906 46.631-3.146 15.336-4.28 30.388-4.28 37.787 0 11.339 9.269 20.608 20.58 20.608h13.38 13.805c8.022 0 15.137-4.649 18.539-11.367 1.388-2.777 2.153-5.923 2.068-9.24z" fill="#ccf49e" fill-rule="evenodd"/></g><g><path clip-rule="evenodd" d="m208.902 348.398c-.142-6.038-.113-37.248-8.277-59.955-4.28-11.849-10.772-21.374-20.721-23.84-1.616-.397-3.373-.624-5.187-.624-4.847 0-9.043 2.126-12.671 5.698 4.932 4.451 8.617 11.112 11.367 18.766 8.192 22.706 8.164 53.917 8.306 59.955.085 3.317-.68 6.463-2.098 9.241-1.247 2.495-3.005 4.706-5.131 6.492-3.628 3.033-8.334 4.876-13.38 4.876h13.38 13.805c8.022 0 15.137-4.649 18.539-11.367 1.388-2.779 2.153-5.925 2.068-9.242z" fill="#b3e59e" fill-rule="evenodd"/></g><g><path clip-rule="evenodd" d="m504.5 357.639-169.824-218.898c-5.953-7.682-11.962-7.682-17.943 0l-50.882 65.596-65.225 84.106c8.164 22.706 8.135 53.917 8.277 59.955.085 3.317-.68 6.463-2.069 9.241h115.766 3.118 41.613 48.501c5.272-14.457 13.039-25.626 24.151-25.626 13.266 0 21.373 11.282 26.306 25.626z" fill="#95d6a4" fill-rule="evenodd"/></g><g><path clip-rule="evenodd" d="m504.5 357.639-169.824-218.898c-5.953-7.682-11.962-7.682-17.943 0l-39.118 50.43c53.093 50.543 76.422 100.179 21.373 168.468h23.612 3.118 41.613 48.501c5.272-14.457 13.039-25.626 24.151-25.626 13.266 0 21.373 11.282 26.306 25.626z" fill="#78c2a4" fill-rule="evenodd"/></g><g><path clip-rule="evenodd" d="m466.289 357.639c7.767 22.593 7.739 52.839 7.88 58.792-.142-5.952-.113-36.199-7.88-58.792zm38.211 142.219v-142.219h-38.211c7.767 22.593 7.739 52.839 7.88 58.792.085 3.317-.68 6.463-2.069 9.241-3.402 6.718-10.517 11.367-18.539 11.367h-13.805-13.38c-.567 0-2.551 19.9-11.424 34.385-9.978 16.356-26.958 27.582-27.78 28.432h117.328z" fill="#c6875e" fill-rule="evenodd"/></g><g><path clip-rule="evenodd" d="m474.169 416.432c-.142-5.953-.113-36.199-7.88-58.792-4.932-14.344-13.039-25.626-26.306-25.626-11.112 0-18.879 11.169-24.151 25.626-7.54 20.637-10.063 47.935-10.063 58.792 0 11.339 9.269 20.609 20.608 20.609h13.38 13.805c11.338-.001 20.891-9.27 20.607-20.609z" fill="#ccf49e" fill-rule="evenodd"/></g><g><path clip-rule="evenodd" d="m474.169 416.432c-.142-6.066-.113-37.248-8.306-59.955-4.252-11.849-10.772-21.374-20.693-23.84-1.644-.397-3.373-.624-5.187-.624-4.847 0-9.043 2.126-12.671 5.698 4.932 4.451 8.617 11.112 11.367 18.766 8.192 22.706 8.164 53.888 8.306 59.955.057 3.317-.68 6.463-2.098 9.241-1.247 2.495-3.005 4.677-5.131 6.492-3.628 3.033-8.334 4.876-13.38 4.876h13.38 13.805c8.022 0 15.137-4.649 18.539-11.367 1.389-2.779 2.154-5.926 2.069-9.242z" fill="#b3e59e" fill-rule="evenodd"/></g><g><path clip-rule="evenodd" d="m460.96 79.921c0-12.898-10.46-23.387-23.386-23.387-3.345 0-6.52.709-9.383 1.956 7.313 3.969 12.302 11.707 12.302 20.58 0 9.581-5.783 17.83-14.032 21.431 3.317 1.786 7.087 2.806 11.112 2.806 12.927 0 23.387-10.46 23.387-23.386z" fill="#fdb440" fill-rule="evenodd"/></g><g><path d="m144.527 411.54h-5.074c-4.142 0-7.5 3.358-7.5 7.5s3.358 7.5 7.5 7.5h5.074c4.142 0 7.5-3.358 7.5-7.5s-3.358-7.5-7.5-7.5z"/><path d="m240.849 388.918h-5.045c-4.142 0-7.5 3.358-7.5 7.5s3.358 7.5 7.5 7.5h5.045c4.142 0 7.5-3.358 7.5-7.5s-3.358-7.5-7.5-7.5z"/><path d="m199.832 428.491h-5.074c-4.142 0-7.5 3.358-7.5 7.5s3.358 7.5 7.5 7.5h5.074c4.142 0 7.5-3.358 7.5-7.5s-3.358-7.5-7.5-7.5z"/><path d="m428.089 132.732v17.207c0 4.142 3.358 7.5 7.5 7.5s7.5-3.358 7.5-7.5v-17.207c0-4.142-3.358-7.5-7.5-7.5s-7.5 3.358-7.5 7.5z"/><path d="m366.679 88.555h17.234c4.142 0 7.5-3.358 7.5-7.5s-3.358-7.5-7.5-7.5h-17.234c-4.142 0-7.5 3.358-7.5 7.5s3.358 7.5 7.5 7.5z"/><path d="m466.819 112.297c-2.925 2.933-2.92 7.681.012 10.607l12.189 12.161c1.464 1.46 3.381 2.19 5.297 2.19 1.922 0 3.844-.734 5.31-2.203 2.925-2.933 2.92-7.681-.012-10.607l-12.189-12.161c-2.934-2.925-7.681-2.92-10.607.013z"/><path d="m393.753 49.796c1.464 1.46 3.381 2.19 5.297 2.19 1.922 0 3.845-.734 5.31-2.203 2.925-2.933 2.92-7.681-.012-10.607l-12.189-12.161c-2.934-2.925-7.682-2.92-10.607.012-2.925 2.933-2.92 7.681.012 10.607z"/><path d="m393.753 112.285-12.189 12.161c-2.932 2.926-2.938 7.674-.012 10.607 1.465 1.468 3.387 2.203 5.31 2.203 1.917 0 3.833-.73 5.297-2.19l12.189-12.161c2.932-2.926 2.938-7.674.012-10.607-2.925-2.933-7.674-2.939-10.607-.013z"/><path d="m435.589 36.849c4.142 0 7.5-3.358 7.5-7.5v-17.207c0-4.142-3.358-7.5-7.5-7.5s-7.5 3.358-7.5 7.5v17.207c0 4.142 3.358 7.5 7.5 7.5z"/><path d="m479.765 81.026c0 4.142 3.358 7.5 7.5 7.5h17.235c4.142 0 7.5-3.358 7.5-7.5s-3.358-7.5-7.5-7.5h-17.235c-4.142 0-7.5 3.358-7.5 7.5z"/><path d="m472.128 51.986c1.917 0 3.833-.73 5.297-2.19l12.189-12.161c2.932-2.926 2.938-7.674.012-10.607-2.926-2.932-7.675-2.938-10.607-.012l-12.189 12.161c-2.932 2.926-2.938 7.674-.012 10.607 1.466 1.468 3.388 2.202 5.31 2.202z"/><path d="m71.705 324.513c-15.393 0-26.978 13.723-34.433 40.787-5.322 19.32-7.253 41.164-7.253 51.132 0 15.499 12.609 28.108 28.108 28.108h5.851v18.466c0 4.142 3.358 7.5 7.5 7.5s7.5-3.358 7.5-7.5v-18.466h6.333c7.559 0 14.937-3.112 20.242-8.538 5.237-5.356 8.031-12.367 7.864-19.768-.011-.426-.021-.98-.034-1.65-1.364-74.444-23.418-90.071-41.678-90.071zm23.122 101.003c-2.5 2.557-5.969 4.024-9.516 4.024h-6.333v-12.286c0-4.142-3.358-7.5-7.5-7.5s-7.5 3.358-7.5 7.5v12.286h-5.851c-7.228 0-13.108-5.88-13.108-13.108 0-27.118 10.132-76.918 26.686-76.918 9.866 0 17.247 10.122 21.937 30.083 4.245 18.07 4.607 37.826 4.744 45.263.013.719.024 1.313.036 1.741.074 3.302-1.203 6.469-3.595 8.915z"/><path d="m510.426 353.042-67.38-86.856c-2.539-3.273-7.25-3.868-10.523-1.329s-3.868 7.25-1.329 10.523l57.995 74.759h-17.74c-8.385-20.105-20.592-25.626-31.466-25.626-12.197 0-22.001 8.611-29.259 25.626h-194.351c.029-.636.044-1.274.028-1.917l-.027-1.486c-.42-25.067-3.196-43.47-7.389-56.869l113.665-146.518c1.717-2.206 2.787-2.741 3.063-2.85.275.109 1.336.646 3.036 2.839l81.383 104.914c2.539 3.271 7.25 3.868 10.523 1.329s3.868-7.25 1.33-10.523l-81.38-104.91c-4.452-5.745-9.456-8.662-14.873-8.668-.006 0-.011 0-.018 0-5.416 0-10.429 2.912-14.907 8.665l-45.163 58.217-28.554-34.322c-2.649-3.184-7.379-3.617-10.563-.969-3.184 2.649-3.618 7.378-.969 10.563l30.669 36.864-54.006 69.615c-8.011-13.618-18.242-17.632-27.506-17.632-15.405 0-26.994 13.723-34.444 40.788-.53 1.927-1.026 3.88-1.49 5.844h-115.291l154.439-185.707c1.61-1.935 2.701-2.473 2.914-2.509.252.037 1.333.575 2.933 2.505l20.438 24.577c2.649 3.185 7.378 3.619 10.562.971 3.185-2.648 3.62-7.377.971-10.562l-20.43-24.567c-4.351-5.251-9.208-7.917-14.435-7.923-.006 0-.012 0-.019 0-5.226 0-10.092 2.661-14.464 7.913l-164.666 198.005c-1.108 1.33-1.733 3.065-1.733 4.795v189.247c0 4.142 3.358 7.5 7.5 7.5h497c4.142 0 7.5-3.358 7.5-7.5v-142.219c0-.584-.074-1.151-.2-1.697-.243-1.047-.715-2.049-1.374-2.9zm-70.443-13.529c15.9 0 25.866 28.228 26.659 75.509.011.637.02 1.168.03 1.597.082 3.284-1.184 6.437-3.565 8.878-2.506 2.569-5.985 4.043-9.545 4.043h-6.305v-12.286c0-4.142-3.358-7.5-7.5-7.5s-7.5 3.358-7.5 7.5v12.286h-5.879c-7.228 0-13.108-5.88-13.108-13.108-.001-27.118 10.142-76.919 26.713-76.919zm-265.267-68.033c15.9 0 25.866 28.228 26.659 75.508.011.637.02 1.168.03 1.597.082 3.284-1.184 6.437-3.565 8.878-2.506 2.569-5.985 4.042-9.545 4.042h-6.305v-12.258c0-4.142-3.358-7.5-7.5-7.5s-7.5 3.358-7.5 7.5v12.258h-5.88c-7.212 0-13.08-5.88-13.08-13.108 0-27.116 10.132-76.917 26.686-76.917zm-115.087 220.878h-44.629v-174.247h120.835c-1.999 12.457-2.805 23.846-2.805 30.287 0 15.499 12.597 28.108 28.08 28.108h5.88v18.495c0 4.142 3.358 7.5 7.5 7.5s7.5-3.358 7.5-7.5v-18.495h6.305c7.579 0 14.972-3.124 20.283-8.569.866-.888 1.658-1.825 2.388-2.798h80.716c-8.784 11.37-9.866 27-10.743 39.798-.731 10.668-1.421 20.745-5.691 26.081-42.551 53.115-163.566 58.748-203.333 60.599-6.107.285-9.997.466-12.286.741zm128.417 0c39.112-9.365 77.396-25.109 98.911-51.965 7.204-9.005 8.089-21.93 8.946-34.43 1.609-23.48 3.798-38.047 27.18-40.824h17.17c-.687 1.229-1.305 2.517-1.833 3.876-5.699 14.682-.519 33.309 12.595 45.296 10.767 9.85 20.154 25.826 14.212 41.126-4.312 11.101-23.911 36.92-112.558 36.92h-64.623zm308.954 0h-151.497c17.062-7.731 28.678-18.544 33.706-31.49 7.264-18.702.34-40.782-18.072-57.626-10.098-9.231-11.606-21.399-8.734-28.799 1.648-4.245 5.575-9.304 14.927-9.304h38.241c-.015.054-.031.105-.045.159-5.325 19.317-7.257 41.163-7.257 51.133 0 15.499 12.609 28.108 28.108 28.108h5.879v18.466c0 4.142 3.358 7.5 7.5 7.5s7.5-3.358 7.5-7.5v-18.465h6.305c7.579 0 14.972-3.124 20.284-8.569 5.228-5.36 8.006-12.366 7.823-19.714l-.027-1.486c-.349-20.824-2.324-37.052-5.385-49.631h20.744z"/><path d="m284.361 272.581c-4.142 0-7.5 3.358-7.5 7.5s3.358 7.5 7.5 7.5h5.074c4.142 0 7.5-3.358 7.5-7.5s-3.358-7.5-7.5-7.5z"/><path d="m332.862 224.136c-4.142 0-7.5 3.358-7.5 7.5s3.358 7.5 7.5 7.5h5.074c4.142 0 7.5-3.358 7.5-7.5s-3.358-7.5-7.5-7.5z"/><path d="m365.148 295.627c-4.142 0-7.5 3.358-7.5 7.5s3.358 7.5 7.5 7.5h5.045c4.142 0 7.5-3.358 7.5-7.5s-3.358-7.5-7.5-7.5z"/><path d="m201.39 194.796c-4.142 0-7.5 3.358-7.5 7.5s3.358 7.5 7.5 7.5h5.074c4.142 0 7.5-3.358 7.5-7.5s-3.358-7.5-7.5-7.5z"/><path d="m131.091 224.136c-4.142 0-7.5 3.358-7.5 7.5s3.358 7.5 7.5 7.5h5.046c4.142 0 7.5-3.358 7.5-7.5s-3.358-7.5-7.5-7.5z"/><path d="m437.574 110.807c17.03 0 30.886-13.855 30.886-30.886s-13.855-30.887-30.886-30.887-30.886 13.856-30.886 30.887 13.855 30.886 30.886 30.886zm0-46.773c8.759 0 15.886 7.127 15.886 15.887s-7.126 15.886-15.886 15.886-15.886-7.126-15.886-15.886 7.126-15.887 15.886-15.887z"/></g></g></svg>