<svg id="Capa_1" enable-background="new 0 0 512.001 512.001" height="512" viewBox="0 0 512.001 512.001" width="512" xmlns="http://www.w3.org/2000/svg"><g><g><path d="m452.323 374.215c73.688-87.626 69.33-219.002-13.102-301.435-82.433-82.433-213.809-86.79-301.435-13.102z" fill="#cfa388"/></g><g><path d="m455.088 90.435c-4.925-6.094-10.205-11.994-15.867-17.655-82.433-82.433-213.809-86.79-301.435-13.102l33.522 33.522c81.607-68.627 201.155-69.547 283.78-2.765z" fill="#bf947a"/></g><g><path d="m361.818 283.709c77.698-83.615 112.397-175.936 77.403-210.93s-127.314-.295-210.929 77.403z" fill="#bf947a"/></g><g><path d="m361.818 283.709c77.698-83.615 112.397-175.936 77.403-210.93s-127.314-.295-210.929 77.403z" fill="#bf947a"/></g><g><path d="m450.972 94.55c-2.096-8.622-5.965-15.984-11.752-21.771-34.994-34.994-127.314-.295-210.929 77.403l33.522 33.522c69.79-64.85 145.635-99.734 189.159-89.154z" fill="#b2876d"/></g><g><path d="m137.786 59.678-103.393 9.223c-5.537.494-10.724 2.918-14.655 6.849l-.365.365c-15.83 15.83-15.83 41.497 0 57.327 4.151 4.151 9.695 6.614 15.558 6.912l193.361 9.829z" fill="#b2876d"/></g><g><path d="m452.323 374.215-9.223 103.393c-.494 5.537-2.918 10.724-6.849 14.655l-.365.365c-15.83 15.83-41.497 15.83-57.327 0-4.151-4.151-6.614-9.695-6.912-15.558l-9.829-193.361z" fill="#b2876d"/></g><g><path d="m22.708 489.293c-9.257-9.257-9.257-24.265 0-33.522l67.045-67.045 33.522 33.522-67.045 67.045c-9.257 9.257-24.266 9.257-33.522 0z" fill="#636978"/></g><g><path d="m39.469 472.532 67.045-67.045-16.761-16.761-67.045 67.045c-9.257 9.257-9.257 24.265 0 33.522 3.057 3.057 6.745 5.082 10.641 6.12-2.106-7.904-.081-16.681 6.12-22.881z" fill="#555a66"/></g><g><path d="m135.816 426.467-50.283-50.283c-4.628-4.628-12.133-4.628-16.761 0l-23.465 23.466c-4.628 4.628-4.628 12.133 0 16.761l50.283 50.283c4.628 4.628 12.133 4.628 16.761 0l23.466-23.466c4.628-4.628 4.628-12.132-.001-16.761z" fill="#fff48f"/></g><g><path d="m70.448 424.791 23.466-23.466c4.628-4.628 12.133-4.628 16.761 0l-25.142-25.142c-4.628-4.628-12.133-4.628-16.761 0l-23.465 23.467c-4.628 4.628-4.628 12.133 0 16.761l25.142 25.142c-4.629-4.629-4.629-12.133-.001-16.762z" fill="#ffee6e"/></g><g><circle cx="177.719" cy="334.281" fill="#636978" r="118.519"/></g><g><path d="m119.055 275.618c42.012-42.012 107.715-45.887 154.101-11.632-3.484-4.718-7.359-9.237-11.632-13.51-46.284-46.284-121.326-46.285-167.611 0-46.284 46.284-46.284 121.326 0 167.611 4.273 4.273 8.792 8.148 13.51 11.632-34.255-46.386-30.379-112.09 11.632-154.101z" fill="#555a66"/></g><g><circle cx="177.719" cy="334.281" fill="#b2d3ff" r="71.111"/></g><g><path d="m152.578 309.14c23.387-23.387 59.145-27.047 86.405-10.98-2.981-5.058-6.64-9.823-10.98-14.162-27.726-27.726-72.84-27.726-100.567 0s-27.726 72.84 0 100.567c4.339 4.339 9.104 7.999 14.162 10.98-16.067-27.26-12.407-63.018 10.98-86.405z" fill="#9bc5ff"/></g><g><path d="m511.811 221.248c-2.344-58.114-26.24-112.725-67.286-153.771-43.513-43.513-101.456-67.476-163.154-67.476-53.539 0-105.481 18.603-146.557 52.412l-101.088 9.017c-7.276.649-14.127 3.852-19.295 9.02l-.361.361c-9.073 9.073-14.07 21.136-14.07 33.967s4.997 24.895 14.07 33.968c5.476 5.475 12.749 8.706 20.48 9.099l190.479 9.683 129.445 129.445 9.683 190.479c.393 7.731 3.624 15.005 9.099 20.48 9.073 9.073 21.137 14.069 33.968 14.069s24.894-4.997 33.959-14.062l.373-.371c5.164-5.165 8.366-12.017 9.016-19.293l9.018-101.089c35.979-43.704 54.519-98.977 52.221-155.938zm-60.078 141.77-79.539-79.54c35.987-39.815 63.442-82.515 77.62-120.867 7.196-19.466 10.673-37.122 10.484-52.375 50.773 75.96 48.744 179.041-8.565 252.782zm-170.362-348.017c43.623 0 85.232 12.818 120.519 36.653-31.62-.449-73.165 14.944-118.292 45.027-3.446 2.298-4.378 6.954-2.08 10.4 2.298 3.447 6.955 4.379 10.4 2.08 31.291-20.859 61.438-34.724 87.184-40.094 17.287-3.605 40.83-4.97 54.814 9.017 14.667 14.666 15.315 42.839 1.827 79.328-13.466 36.427-39.689 77.189-74.171 115.446l-122.43-122.43c9.837-8.864 19.926-17.267 30.08-25.03 3.291-2.516 3.919-7.223 1.403-10.513-2.516-3.291-7.222-3.921-10.513-1.403-10.673 8.16-21.273 16.997-31.593 26.324l-79.539-79.539c37.633-29.246 84.324-45.266 132.391-45.266zm-246.06 117.863c-4.015-.204-7.792-1.882-10.635-4.725-6.24-6.24-9.676-14.537-9.676-23.361s3.437-17.12 9.68-23.363l.361-.361c2.682-2.683 6.24-4.345 10.018-4.682l99.902-8.912 74.244 74.244zm400.318 344.077c-.337 3.779-1.999 7.337-4.674 10.012l-.373.372c-6.239 6.239-14.535 9.676-23.359 9.676s-17.121-3.437-23.36-9.677c-2.844-2.843-4.521-6.619-4.726-10.635l-8.84-173.893 74.244 74.244z"/><path d="m177.719 208.262c-33.661 0-65.307 13.108-89.109 36.91-35.225 35.225-45.193 86.287-29.912 130.478l-18.695 18.696c-3.655 3.655-5.668 8.515-5.668 13.684 0 5.17 2.013 10.029 5.668 13.685l3.077 3.077-25.676 25.676c-12.166 12.166-12.166 31.962 0 44.13 6.083 6.083 14.074 9.124 22.064 9.124 7.991 0 15.981-3.041 22.064-9.124l25.677-25.677 3.077 3.077c3.655 3.656 8.515 5.669 13.685 5.669 5.169 0 10.029-2.013 13.684-5.668l18.668-18.667c13.385 4.651 27.421 6.999 41.481 6.999 27.426 0 54.943-8.92 77.89-27.035 3.251-2.566 3.807-7.282 1.24-10.534-2.566-3.252-7.283-3.808-10.534-1.239-44.108 34.82-107.383 31.063-147.183-8.738-20.968-20.968-32.516-48.848-32.516-78.501 0-29.654 11.548-57.534 32.516-78.502 20.969-20.97 48.848-32.518 78.502-32.518s57.533 11.548 78.502 32.518c39.8 39.799 43.557 103.073 8.738 147.181-2.566 3.252-2.012 7.968 1.239 10.534 3.254 2.568 7.969 2.011 10.534-1.239 39.531-50.076 35.272-121.906-9.904-167.083-23.802-23.804-55.448-36.913-89.109-36.913zm-126.793 275.728c-3.061 3.061-7.129 4.746-11.458 4.746s-8.397-1.686-11.458-4.747c-6.317-6.317-6.317-16.597 0-22.914l25.676-25.677 22.915 22.915zm70.473-36.95-14.352 14.352c-.822.821-1.915 1.274-3.077 1.274-1.163 0-2.255-.453-3.078-1.275l-8.376-8.376c-.002-.002-.003-.003-.005-.005s-.003-.003-.005-.005l-33.506-33.508c-.003-.003-.006-.007-.009-.01s-.007-.006-.01-.009l-8.371-8.371c-.822-.821-1.274-1.914-1.274-3.077 0-1.162.453-2.255 1.274-3.076l14.364-14.364c5.902 11.842 13.778 22.942 23.637 32.801 9.832 9.832 20.929 17.722 32.788 23.649z"/><path d="m177.719 255.704c-21.02 0-40.76 8.165-55.586 22.99-30.65 30.651-30.65 80.523 0 111.175 14.826 14.825 34.567 22.99 55.586 22.99s40.76-8.165 55.586-22.99c30.65-30.651 30.65-80.523 0-111.175-14.826-14.825-34.566-22.99-55.586-22.99zm44.98 123.557c-11.993 11.993-27.967 18.598-44.98 18.598s-32.987-6.604-44.98-18.598c-24.802-24.802-24.802-65.158 0-89.96 11.993-11.993 27.967-18.598 44.98-18.598s32.987 6.604 44.98 18.598c24.802 24.802 24.802 65.159 0 89.96z"/></g></g></svg>