<svg xmlns="http://www.w3.org/2000/svg" height="511pt" version="1.1" viewBox="-1 1 511 511.99949" width="511pt">
<g id="surface1">
<path d="M 161.304688 302.699219 L 17.941406 446.0625 C 4.554688 459.449219 4.554688 481.152344 17.941406 494.539062 C 31.328125 507.925781 53.03125 507.925781 66.417969 494.539062 L 209.78125 351.175781 L 201.945312 310.535156 Z M 161.304688 302.699219 " style=" stroke:none;fill-rule:nonzero;fill:rgb(22.745098%,28.235294%,29.019608%);fill-opacity:1;" />
<path d="M 352.335938 111.667969 L 284.570312 205.496094 L 190.742188 273.261719 L 161.304688 302.699219 L 251.796875 393.191406 C 262.5625 403.957031 280.019531 403.957031 290.789062 393.191406 L 456.585938 227.390625 C 517.332031 166.648438 517.332031 68.160156 456.585938 7.417969 Z M 352.335938 111.667969 " style=" stroke:none;fill-rule:nonzero;fill:rgb(83.137255%,83.137255%,83.137255%);fill-opacity:1;" />
<path d="M 457.578125 8.433594 C 498.464844 68.933594 492.136719 151.824219 438.582031 205.382812 L 270.78125 373.183594 C 260.011719 383.953125 242.554688 383.953125 231.789062 373.183594 L 251.796875 393.191406 C 262.5625 403.957031 280.019531 403.957031 290.789062 393.191406 L 456.585938 227.390625 C 516.996094 166.984375 517.320312 69.253906 457.578125 8.433594 Z M 457.578125 8.433594 " style=" stroke:none;fill-rule:nonzero;fill:rgb(69.411765%,69.411765%,69.411765%);fill-opacity:1;" />
<path d="M 190.742188 273.261719 L 372.140625 454.664062 C 381.066406 463.589844 395.535156 463.589844 404.460938 454.664062 C 413.386719 445.738281 413.386719 431.269531 404.460938 422.34375 L 364.324219 382.207031 C 355.398438 373.28125 355.398438 358.8125 364.324219 349.890625 C 373.246094 340.964844 387.71875 340.964844 396.640625 349.890625 L 411.757812 365.007812 C 420.683594 373.929688 435.152344 373.929688 444.078125 365.007812 C 453.003906 356.082031 453.003906 341.613281 444.078125 332.6875 L 334.089844 222.699219 C 325.164062 213.773438 325.164062 199.304688 334.089844 190.382812 C 343.015625 181.457031 357.484375 181.457031 366.40625 190.382812 L 386.738281 210.710938 C 395.664062 219.636719 410.132812 219.636719 419.054688 210.710938 C 427.980469 201.785156 427.980469 187.316406 419.054688 178.390625 L 352.335938 111.667969 Z M 190.742188 273.261719 " style=" stroke:none;fill-rule:nonzero;fill:rgb(100%,40%,40.784314%);fill-opacity:1;" />
<path d="M 84.332031 439.953125 C 84.332031 446.464844 79.050781 451.746094 72.539062 451.746094 C 66.023438 451.746094 60.742188 446.464844 60.742188 439.953125 C 60.742188 433.4375 66.023438 428.15625 72.539062 428.15625 C 79.050781 428.15625 84.332031 433.4375 84.332031 439.953125 Z M 84.332031 439.953125 " style=" stroke:none;fill-rule:nonzero;fill:rgb(0%,0%,0%);fill-opacity:1;" />
<path d="M 146.421875 377.863281 C 146.421875 384.375 141.140625 389.65625 134.628906 389.65625 C 128.113281 389.65625 122.832031 384.375 122.832031 377.863281 C 122.832031 371.347656 128.113281 366.066406 134.628906 366.066406 C 141.140625 366.066406 146.421875 371.347656 146.421875 377.863281 Z M 146.421875 377.863281 " style=" stroke:none;fill-rule:nonzero;fill:rgb(0%,0%,0%);fill-opacity:1;" />
<path d="M 12.558594 440.84375 C -3.53125 456.933594 -3.507812 483.863281 12.558594 499.933594 C 28.660156 516.035156 55.570312 516.011719 71.648438 499.933594 L 209.707031 361.871094 C 209.707031 361.871094 246.382812 398.546875 246.414062 398.582031 C 259.941406 412.109375 282.511719 412.089844 296.015625 398.582031 L 300.652344 393.945312 C 300.652344 393.945312 366.691406 459.984375 366.761719 460.054688 C 378.472656 471.765625 397.984375 471.761719 409.691406 460.054688 C 421.394531 448.355469 421.378906 428.8125 409.691406 417.128906 C 409.691406 417.128906 369.648438 377.082031 369.554688 376.988281 C 363.628906 371.0625 363.636719 361.199219 369.554688 355.28125 C 375.480469 349.355469 385.339844 349.359375 391.261719 355.28125 L 406.378906 370.398438 C 418.214844 382.230469 437.472656 382.234375 449.308594 370.398438 C 461.144531 358.5625 461.144531 339.304688 449.308594 327.46875 L 408.21875 286.378906 L 461.820312 232.78125 C 480.128906 214.472656 493.472656 192.789062 501.472656 168.34375 C 509.097656 145.039062 511.382812 119.839844 508.078125 95.46875 C 507.523438 91.363281 503.742188 88.484375 499.636719 89.042969 C 495.53125 89.601562 492.652344 93.378906 493.210938 97.484375 C 499.484375 143.757812 484.175781 189.207031 451.207031 222.171875 L 397.609375 275.769531 C 397.609375 275.769531 339.378906 217.539062 339.320312 217.480469 C 333.421875 211.578125 333.433594 201.660156 339.320312 195.773438 C 345.175781 189.917969 355.1875 189.933594 361.03125 195.773438 C 361.03125 195.773438 381.359375 216.097656 381.359375 216.101562 C 393.039062 227.78125 412.601562 227.789062 424.289062 216.101562 C 435.988281 204.402344 435.972656 184.859375 424.289062 173.171875 L 362.871094 111.753906 L 456.382812 18.242188 C 470.011719 33.28125 480.207031 50.621094 486.730469 69.878906 C 488.058594 73.800781 492.316406 75.90625 496.242188 74.578125 C 500.167969 73.246094 502.269531 68.988281 500.941406 65.0625 C 492.871094 41.238281 479.707031 20.085938 461.820312 2.199219 C 458.886719 -0.734375 454.136719 -0.734375 451.207031 2.199219 C 451.207031 2.195312 12.769531 440.632812 12.558594 440.84375 Z M 61.039062 489.320312 C 50.714844 499.640625 33.480469 499.632812 23.167969 489.320312 C 12.84375 478.992188 12.855469 461.769531 23.167969 451.453125 L 161.230469 313.394531 L 161.710938 313.878906 L 199.097656 351.261719 C 199.097656 351.261719 61.140625 489.214844 61.039062 489.320312 Z M 413.675781 205.488281 C 407.777344 211.386719 397.851562 211.375 391.964844 205.488281 L 371.636719 185.160156 C 359.800781 173.324219 340.542969 173.324219 328.707031 185.160156 C 317.019531 196.847656 317.023438 216.402344 328.707031 228.089844 L 438.695312 338.074219 C 444.679688 344.0625 444.679688 353.800781 438.695312 359.785156 C 432.710938 365.769531 422.972656 365.769531 416.988281 359.785156 C 416.988281 359.785156 401.882812 344.679688 401.871094 344.667969 C 390.15625 332.953125 370.640625 332.964844 358.941406 344.667969 C 347.253906 356.355469 347.277344 375.933594 358.941406 387.59375 C 358.941406 387.59375 398.984375 427.640625 399.078125 427.734375 C 405.015625 433.667969 405.007812 443.511719 399.082031 449.441406 C 393.148438 455.375 383.285156 455.355469 377.371094 449.441406 L 274.078125 346.152344 C 271.234375 343.308594 266.316406 343.304688 263.46875 346.152344 C 260.601562 349.015625 260.566406 353.859375 263.46875 356.761719 L 290.042969 383.335938 C 290.042969 383.335938 285.414062 387.964844 285.40625 387.96875 C 277.652344 395.726562 264.765625 395.710938 257.027344 387.96875 L 171.839844 302.785156 L 190.664062 283.957031 L 242.421875 335.714844 C 245.101562 338.394531 249.519531 338.628906 252.460938 336.230469 C 255.84375 333.46875 256.113281 328.1875 253.03125 325.105469 L 201.273438 273.347656 L 352.257812 122.363281 C 352.257812 122.363281 413.625 183.730469 413.675781 183.78125 C 419.542969 189.648438 419.535156 199.632812 413.675781 205.488281 Z M 413.675781 205.488281 " style=" stroke:none;fill-rule:nonzero;fill:rgb(0%,0%,0%);fill-opacity:1;" />
</g>
</svg>