<?xml version="1.0" encoding="iso-8859-1"?>
<!-- Generator: Adobe Illustrator 19.0.0, SVG Export Plug-In . SVG Version: 6.00 Build 0)  -->
<svg version="1.1" id="Capa_1" xmlns="http://www.w3.org/2000/svg" xmlns:xlink="http://www.w3.org/1999/xlink" x="0px" y="0px"
	 viewBox="0 0 511.999 511.999" style="enable-background:new 0 0 511.999 511.999;" xml:space="preserve">
<path style="fill:#EF677E;" d="M255.755,34.243c-122.865,0-222.465,98.896-222.465,220.891c0,121.994,99.601,221.36,222.465,220.891
	c123.479-0.472,223.183-99.447,222.464-220.891C477.495,133.141,378.618,34.243,255.755,34.243z M255.755,364.064
	c-60.589,0.231-109.706-48.77-109.706-108.93s49.116-108.93,109.706-108.93c60.589,0,109.35,48.771,109.705,108.93
	C365.816,315.023,316.648,363.832,255.755,364.064z"/>
<g>
	<path style="fill:#FDFDFD;" d="M163.303,328.377l-69.555,68.057c3.048,3.434,6.204,6.796,9.493,10.061
		c11.327,11.247,23.699,21.081,36.895,29.421l58.333-78.013C184.879,350.43,172.932,340.364,163.303,328.377z"/>
	<path style="fill:#FDFDFD;" d="M163.256,182.844c9.681-12.043,21.676-22.052,35.215-29.476L140.135,75.35
		c-13.195,8.339-25.567,18.173-36.896,29.421c-3.289,3.266-6.445,6.627-9.493,10.061L163.256,182.844z"/>
	<path style="fill:#FDFDFD;" d="M347.203,328.377c-9.629,11.985-21.576,22.053-35.163,29.527l58.332,78.013
		c13.195-8.339,25.567-18.173,36.895-29.421c3.289-3.265,6.445-6.627,9.492-10.061L347.203,328.377z"/>
	<path style="fill:#FDFDFD;" d="M347.467,182.89l70.076-68.616c-3.07-3.462-6.25-6.852-9.563-10.145
		c-11.413-11.34-23.878-21.256-37.172-29.664l-58.768,78.654C325.729,160.656,337.767,170.806,347.467,182.89z"/>
</g>
<g>
	<path style="fill:#E63952;" d="M245.744,475.765c3.322,0.146,6.661,0.233,10.02,0.233c43.8,0,84.639-12.577,119.069-34.282
		l-7.38-9.855C333.706,457.709,291.938,473.73,245.744,475.765z"/>
	<path style="fill:#E63952;" d="M255.764,34.218c-3.359,0-6.698,0.087-10.02,0.233c46.331,2.04,88.207,18.154,122.005,44.135
		l7.396-9.894C340.651,46.867,299.697,34.218,255.764,34.218z"/>
	<path style="fill:#E63952;" d="M478.226,255.108c0-55.929-20.945-106.994-55.457-145.91l-12.8,12.523
		c27.291,37.061,43.206,83.274,43.206,133.387c0,50.468-15.416,96.148-43.061,133.341l11.999,13.302
		C457.016,362.744,478.226,311.389,478.226,255.108z"/>
</g>
<g>
	<path style="fill:#ECEDEF;" d="M422.216,401.844l-12.102-13.396c-11.953,16.081-26.782,31.252-42.662,43.415l7.38,9.855
		l0.028,0.037C397.596,428.928,422.216,401.844,422.216,401.844z"/>
	<path style="fill:#ECEDEF;" d="M375.153,68.683l-0.007,0.01l-7.396,9.894c16.016,12.312,30.219,26.837,42.221,43.135l12.8-12.523
		l0.123-0.121C418.886,103.987,395.35,80.116,375.153,68.683z"/>
</g>
<path d="M477.864,318.212c-0.171-0.258-0.36-0.497-0.556-0.727c5.666-20.07,8.548-41.022,8.422-62.397
	c-0.122-20.634-2.955-40.838-8.307-60.212c0.152-0.187,0.304-0.375,0.441-0.58c13.998-21.059,18.344-48.186,12.24-76.381
	c-6.047-27.924-22.017-54.969-44.968-76.156c-25.127-23.196-56.038-37.319-87.039-39.77c-30.73-2.428-58.003,6.832-77.116,26.111
	c-8.32-0.898-16.736-1.37-25.226-1.37c-8.578,0-17.08,0.48-25.486,1.395c-0.172-0.222-0.356-0.44-0.557-0.646
	C211.747,9.009,186.376-0.735,158.28,0.043c-27.494,0.761-55.979,11.587-80.206,30.482c-3.271,2.551-3.855,7.271-1.304,10.542
	c1.481,1.899,3.694,2.892,5.928,2.892c1.614,0,3.242-0.519,4.614-1.588c21.718-16.938,47.069-26.637,71.383-27.311
	c19.955-0.552,38.182,5.072,52.394,15.954c-44.399,8.632-85.226,30.116-117.936,62.594c-23.771,23.604-41.684,51.471-53.047,81.859
	c-6.732-14.836-8.883-32.161-6.01-50.049c3.785-23.566,16.143-47.157,34.796-66.431c2.885-2.981,2.807-7.736-0.173-10.621
	c-2.981-2.885-7.736-2.807-10.621,0.173c-21.075,21.774-34.504,47.535-38.834,74.496c-4.227,26.322,0.952,51.8,14.56,71.864
	c-5.301,19.388-8.046,39.599-8.046,60.231c0,21.194,2.889,41.947,8.471,61.824c-14.363,20.783-19.211,47.795-13.651,76.072
	c5.512,28.033,20.963,55.375,43.506,76.989c24.68,23.664,55.316,38.368,86.265,41.402c3.96,0.388,7.863,0.581,11.705,0.581
	c26.819-0.001,50.525-9.376,67.637-26.972c0.768-0.789,1.321-1.707,1.673-2.679c7.756,0.783,15.595,1.188,23.496,1.188
	c0.3,0,0.602-0.001,0.901-0.002c7.811-0.03,15.559-0.438,23.222-1.214c0.089,0.106,0.172,0.214,0.267,0.316
	c17.966,19.187,42.984,28.724,69.905,28.724c28.547,0,59.232-10.728,85.892-32.05c3.239-2.591,3.766-7.318,1.175-10.558
	c-2.592-3.24-7.318-3.766-10.558-1.175c-42.063,33.641-94.836,37.985-127.581,11.997c46.209-8.552,88.557-30.785,122.124-64.681
	c22.569-22.789,39.707-49.437,50.783-78.387c16.951,35.363,6.85,79.864-27.005,114.154c-2.914,2.953-2.884,7.708,0.067,10.622
	c1.464,1.445,3.371,2.166,5.278,2.166c1.939,0,3.876-0.746,5.345-2.234C496.957,418.414,506.267,360.943,477.864,318.212z
	 M426.985,384.432l-70.532-69.014c10.724-17.611,16.903-38.245,16.903-60.286c0-22.042-6.18-42.676-16.903-60.287l70.234-68.722
	c28.273,36.885,43.739,81.768,44.02,129.053C470.986,302.376,455.613,347.406,426.985,384.432z M255.755,356.933
	c-56.563,0-102.58-45.667-102.58-101.8c0-4.148-3.363-7.512-7.512-7.512c-4.148,0-7.512,3.363-7.512,7.512
	c0,22.042,6.179,42.675,16.904,60.286L84.58,384.376c-28.394-36.993-43.778-81.951-43.778-129.243
	c0-47.291,15.408-92.227,43.841-129.182l70.381,68.866c-5.604,9.219-9.996,19.307-12.897,30.093
	c-1.078,4.006,1.297,8.127,5.303,9.204c4.009,1.078,8.127-1.297,9.204-5.303c11.95-44.441,52.709-75.48,99.119-75.48
	c56.562,0,102.578,45.668,102.578,101.801C358.333,311.266,312.316,356.933,255.755,356.933z M103.606,406.038
	c-3.268-3.256-6.405-6.606-9.433-10.029l69.631-68.132c9.629,11.985,21.577,22.053,35.165,29.528l-58.441,78.157
	C127.326,427.203,114.946,417.334,103.606,406.038z M407.491,104.265c3.331,3.315,6.527,6.729,9.612,10.22l-69.399,67.904
	c-9.629-11.985-21.576-22.053-35.163-29.527l58.267-77.929C383.928,83.253,396.228,93.056,407.491,104.265z M434.946,52.798
	c38.232,35.292,52.489,85.865,36.159,122.669c-11.426-30.413-29.329-58.278-53.016-81.852
	C385.508,61.193,344.842,39.724,300.6,31.06C335.902,5.791,393.043,14.117,434.946,52.798z M357.759,67.298l-59.112,79.057
	c-13.295-5.192-27.765-8.046-42.893-8.046c-15.01,0-29.503,2.838-42.887,8.055l-59.169-79.131
	c30.988-16.639,65.835-25.479,102.056-25.479C291.969,41.754,326.801,50.618,357.759,67.298z M140.636,74.849l58.336,78.018
	c-13.539,7.424-25.534,17.433-35.216,29.477l-69.508-68.011c3.047-3.434,6.204-6.796,9.492-10.061
	C115.069,93.022,127.441,83.188,140.636,74.849z M161.912,496.98c-29.24-0.001-61.469-12.932-87.409-37.805
	C37.039,423.254,23.719,372.572,40.568,336.1c11.36,29.879,29.061,57.295,52.436,80.582c33.301,33.175,74.981,54.851,120.259,63.1
	C199.225,491.34,181.221,496.98,161.912,496.98z M255.726,468.512c-0.284,0.001-0.56,0.002-0.843,0.002
	c-35.935,0-70.514-8.783-101.299-25.329l59.276-79.275c13.295,5.192,27.765,8.046,42.893,8.046c15.128,0,29.597-2.854,42.893-8.046
	l59.123,79.071C326.825,459.525,292.01,468.374,255.726,468.512z M370.846,435.381l-58.305-77.977
	c13.587-7.474,25.535-17.542,35.163-29.527l69.643,68.145c-2.517,2.822-5.111,5.595-7.793,8.304
	C397.736,416.258,384.747,426.637,370.846,435.381z"/>
<g>
</g>
<g>
</g>
<g>
</g>
<g>
</g>
<g>
</g>
<g>
</g>
<g>
</g>
<g>
</g>
<g>
</g>
<g>
</g>
<g>
</g>
<g>
</g>
<g>
</g>
<g>
</g>
<g>
</g>
</svg>
