<svg height="512pt" viewBox="0 -32 512.0014 512" width="512pt" xmlns="http://www.w3.org/2000/svg"><path d="m400.523438 77.828125c6.105468-4.058594 11.121093-9.902344 14.152343-17.179687 8.15625-19.566407-1.09375-42.039063-20.660156-50.195313s-42.039063 1.09375-50.195313 20.660156c-3.035156 7.277344-3.65625 14.953125-2.242187 22.144531 1.097656 7.117188 4.179687 42.203126-35.671875 68.800782-.582031-.835938 71.863281 29.363281 70.859375 29.535156-9.160156-47.027344 17.933594-69.535156 23.757813-73.765625zm0 0" fill="#f4e74d"/><path d="m296.082031 353.125-76.53125-31.902344 89.113281-213.765625 76.53125 31.902344zm0 0" fill="#a4e7ff"/><path d="m270.304688 199.472656c33.011718 17.402344 63.089843 17.246094 84.382812 13.070313l30.507812-73.183594-76.53125-31.898437zm0 0" fill="#5ad6ff"/><path d="m308.660156 107.441406 38.265625 15.949219-89.097656 213.761719-38.265625-15.945313zm0 0" fill="#5ad6ff"/><path d="m270.304688 199.472656c13.734374 7.238282 26.957031 11.441406 39.253906 13.578125l37.371094-89.640625-38.265626-15.953125zm0 0" fill="#00c5fd"/><path d="m331.320312 160.855469c-26.28125-10.953125-49.566406-29.089844-67.019531-53.222657-6.757812-9.347656-4.660156-22.402343 4.6875-29.160156 9.347657-6.761718 22.40625-4.660156 29.164063 4.683594 25.648437 35.472656 68.453125 53.3125 111.703125 46.5625 11.398437-1.777344 22.078125 6.019531 23.859375 17.414062 1.777344 11.398438-6.019532 22.078126-17.417969 23.859376-29.425781 4.589843-58.699219.816406-84.976563-10.136719zm0 0" fill="#f9ee80"/><path d="m393.691406 44.890625c0 7.746094-6.28125 14.027344-14.03125 14.027344-7.746094 0-14.027344-6.28125-14.027344-14.027344 0-7.75 6.28125-14.027344 14.027344-14.027344 7.75 0 14.03125 6.277344 14.03125 14.027344zm0 0" fill="#ff8a98"/><path d="m252.773438 317.894531 60.300781-40.816406c14.144531-9.574219 32.113281-11.527344 47.984375-5.210937l58.425781 23.242187c22.007813 8.753906 38.8125 27.078125 45.636719 49.753906l15.78125 52.421875c6.457031 21.453125-9.605469 43.0625-32.011719 43.0625h-185.914063zm0 0" fill="#8697a6"/><path d="m252.773438 317.894531 10.203124 122.453125h185.914063s-14.925781-53.53125-130.246094-94.519531c-29.589843-10.519531-5.566406-68.75-5.566406-68.75zm0 0" fill="#6b7d8e"/><path d="m9.964844 394.339844 36.226562-89.164063c8.820313-21.714843 27.101563-38.191406 49.613282-44.714843l83.214843-24.125c26.316407-7.628907 54.269531 5.015624 65.914063 29.8125l81.824218 174.199218h-285.820312c-23.726562 0-39.902344-24.027344-30.972656-46.007812zm0 0" fill="#a5b1bd"/><path d="m98.414062 331.671875c2.320313-60.878906 40.027344-83.574219 40.027344-83.574219l-42.640625 12.363282c-22.507812 6.523437-40.789062 23-49.613281 44.714843l-36.222656 89.164063c-8.929688 21.980468 7.246094 46.007812 30.972656 46.007812h42.375c-14.21875-34.753906 13.949219-78.414062 15.101562-108.675781zm0 0" fill="#8697a6"/><path d="m175.941406 86.335938 4.882813 8.921874c4.867187 8.902344 12.183593 16.21875 21.085937 21.085938l8.921875 4.878906c9.132813 4.996094 9.132813 18.109375 0 23.105469l-8.921875 4.878906c-8.902344 4.871094-16.21875 12.1875-21.085937 21.085938l-4.882813 8.925781c-4.992187 9.128906-18.109375 9.128906-23.105468 0l-4.878907-8.925781c-4.867187-8.898438-12.1875-16.214844-21.085937-21.085938l-8.921875-4.878906c-9.132813-4.992187-9.132813-18.109375 0-23.105469l8.921875-4.878906c8.898437-4.867188 16.21875-12.183594 21.085937-21.085938l4.878907-8.921874c4.996093-9.132813 18.113281-9.132813 23.105468 0zm0 0" fill="#b0f0ef"/><path d="m482.128906 218.550781 2.617188 4.78125c2.605468 4.769531 6.53125 8.691407 11.300781 11.300781l4.78125 2.617188c4.894531 2.675781 4.894531 9.707031 0 12.382812l-4.78125 2.617188c-4.769531 2.609375-8.695313 6.53125-11.300781 11.300781l-2.617188 4.78125c-2.675781 4.894531-9.707031 4.894531-12.382812 0l-2.617188-4.78125c-2.609375-4.769531-6.53125-8.691406-11.300781-11.300781l-4.785156-2.617188c-4.894531-2.675781-4.894531-9.707031 0-12.382812l4.785156-2.617188c4.769531-2.609374 8.691406-6.53125 11.300781-11.300781l2.617188-4.78125c2.675781-4.894531 9.707031-4.894531 12.382812 0zm0 0" fill="#b0f0ef"/><path d="m472.304688 342.703125c-7.527344-25.015625-25.769532-44.90625-50.046876-54.5625l-58.425781-23.242187c-6.820312-2.714844-13.96875-4.097657-21.097656-4.1875l33.773437-81.019532c5.046876.464844 22.878907 2.175782 40.949219-1.289062 22.417969-4.300782 24.835938-24.933594 23.667969-32.425782-2.414062-15.464843-16.960938-26.085937-32.425781-23.667968-26.691407 4.164062-53.203125-1.691406-75.039063-15.683594 18.226563-23.707031 16.433594-47.351562 15.332032-54.507812-.015626-.101563-.03125-.203126-.054688-.304688-1.179688-5.992188-.554688-12.152344 1.804688-17.8125 6.550781-15.71875 24.671874-23.171875 40.386718-16.621094 15.71875 6.550782 23.175782 24.667969 16.625 40.386719-2.359375 5.65625-6.296875 10.4375-11.382812 13.816406-.085938.058594-.171875.117188-.253906.179688-3.820313 2.773437-13.460938 10.761719-20.554688 25.015625-1.84375 3.710937-.332031 8.210937 3.378906 10.054687 3.707032 1.84375 8.210938.332031 10.054688-3.375 5.679687-11.414062 13.40625-17.703125 15.824218-19.476562 7.496094-5.023438 13.296876-12.089844 16.78125-20.445313 9.734376-23.351562-1.34375-50.269531-24.699218-60.003906-23.351563-9.730469-50.269532 1.347656-60.003906 24.699219-3.484376 8.351562-4.421876 17.445312-2.710938 26.308593.640625 4.292969 2.433594 23.636719-12.570312 43.125-6.421876-5.511718-12.273438-11.828124-17.386719-18.898437-9.167969-12.683594-26.949219-15.542969-39.636719-6.371094-12.683594 9.171875-15.539062 26.953125-6.367188 39.636719 8.089844 11.183594 17.480469 21.234375 27.90625 29.984375l-44.183593 105.992187c-15.8125-18.042968-40.867188-25.875-65.015625-18.875l-83.21875 24.125c-24.871094 7.210938-44.726563 25.105469-54.472656 49.097657l-36.226563 89.160156c-5.132813 12.640625-3.652344 26.941406 3.964844 38.257813 7.621093 11.316406 20.3125 18.074218 33.953125 18.074218h407.957031c13.074219 0 25.046875-6.019531 32.847656-16.511718 7.800781-10.492188 10.113281-23.691407 6.347657-36.210938zm-146.804688-79.636719c-5.839844 1.695313-11.453125 4.296875-16.628906 7.800782l-21.296875 14.414062 47.851562-114.78125c8.382813 3.050781 16.988281 5.398438 25.726563 7.042969zm-55.121094-159.828125c-4.324218-5.980469-2.976562-14.367187 3.003906-18.691406 5.984376-4.324219 14.367188-2.976563 18.691407 3.003906 27.3125 37.769531 72.894531 56.765625 118.9375 49.578125 7.292969-1.136718 14.152343 3.867188 15.292969 11.160156.550781 3.535157-.09375 13.789063-11.164063 15.289063-27.585937 3.738281-55.496094.957031-80.9375-9.648437-25.441406-10.601563-47.507813-28.132813-63.824219-50.691407zm51.207032 61.476563-54.546876 130.847656-15.1875-32.328125 46.613282-111.8125c7.316406 5.046875 15.050781 9.484375 23.121094 13.292969zm148.117187 257.671875c-4.941406 6.648437-12.527344 10.460937-20.8125 10.460937h-117.367187l-12.320313-26.230468c-1.761719-3.75-6.230469-5.359376-9.980469-3.601563-3.75 1.761719-5.359375 6.230469-3.597656 9.980469l9.324219 19.851562h-274.011719c-8.773438 0-16.613281-4.171875-21.511719-11.445312-4.894531-7.277344-5.8125-16.113282-2.511719-24.238282l36.222657-89.164062c8.007812-19.710938 24.320312-34.410156 44.753906-40.335938l83.21875-24.121093c22.90625-6.640625 46.894531 4.207031 57.035156 25.796875l53.871094 114.683594c1.761719 3.75 6.226563 5.359374 9.976563 3.597656 3.75-1.757813 5.359374-6.226563 3.601562-9.976563l-30.808594-65.589843 42.496094-28.765626c12.101562-8.191406 27.429688-9.851562 41.003906-4.453124l58.429688 23.246093c19.996094 7.953125 35.023437 24.335938 41.226562 44.945313l15.777344 52.421875c2.386719 7.929687.921875 16.292969-4.015625 22.9375zm0 0"/><path d="m114.347656 150.910156 8.921875 4.878906c7.660157 4.1875 13.917969 10.449219 18.109375 18.101563l4.878906 8.925781c3.625 6.628906 10.574219 10.75 18.132813 10.75s14.503906-4.121094 18.132813-10.75l4.882812-8.921875c4.183594-7.65625 10.445312-13.917969 18.101562-18.105469l8.925782-4.878906c6.628906-3.628906 10.75-10.574218 10.75-18.132812s-4.121094-14.503906-10.75-18.128906l-8.925782-4.882813c-7.65625-4.1875-13.917968-10.445313-18.101562-18.105469l-4.882812-8.921875c-3.628907-6.628906-10.574219-10.75-18.132813-10.75s-14.507813 4.121094-18.132813 10.75l-4.878906 8.925781c-4.191406 7.65625-10.449218 13.914063-18.109375 18.101563l-8.921875 4.882813c-6.628906 3.625-10.75 10.574218-10.75 18.128906 0 7.554687 4.117188 14.503906 10.75 18.132812zm7.199219-23.105468 8.921875-4.878907c10.179688-5.566406 18.503906-13.890625 24.070312-24.066406l4.878907-8.925781c1.453125-2.660156 3.960937-2.945313 4.972656-2.945313 1.007813 0 3.515625.285157 4.972656 2.945313l4.878907 8.921875c5.566406 10.179687 13.886718 18.503906 24.066406 24.066406l8.925781 4.882813c2.660156 1.453124 2.945313 3.960937 2.945313 4.96875 0 1.011718-.285157 3.519531-2.945313 4.972656l-8.925781 4.878906c-10.179688 5.570312-18.5 13.890625-24.066406 24.070312l-4.882813 8.921876c-1.453125 2.660156-3.960937 2.949218-4.972656 2.949218-1.007813 0-3.515625-.289062-4.96875-2.949218l-4.882813-8.921876c-5.566406-10.179687-13.890625-18.503906-24.066406-24.070312l-8.921875-4.878906c-2.664063-1.453125-2.949219-3.960938-2.949219-4.972656 0-1.007813.289063-3.515626 2.949219-4.96875zm0 0"/><path d="m504.429688 230.667969-4.785157-2.617188c-3.515625-1.921875-6.394531-4.800781-8.320312-8.316406l-2.613281-4.785156c-2.554688-4.671875-7.449219-7.570313-12.773438-7.570313s-10.21875 2.898438-12.773438 7.570313l-2.613281 4.78125c-1.925781 3.519531-4.800781 6.398437-8.320312 8.320312l-4.785157 2.617188c-4.667968 2.554687-7.570312 7.449219-7.570312 12.773437 0 5.320313 2.902344 10.214844 7.570312 12.769532l4.78125 2.617187c3.519532 1.921875 6.398438 4.800781 8.324219 8.320313l2.613281 4.78125c2.554688 4.667968 7.449219 7.570312 12.773438 7.570312s10.21875-2.902344 12.773438-7.570312l2.613281-4.785157c1.925781-3.519531 4.804687-6.394531 8.320312-8.320312l4.785157-2.613281c4.667968-2.554688 7.570312-7.449219 7.570312-12.773438 0-5.320312-2.902344-10.214844-7.570312-12.769531zm-11.980469 15c-6.042969 3.300781-10.980469 8.242187-14.285157 14.28125l-2.226562 4.074219-2.226562-4.074219c-3.304688-6.039063-8.242188-10.976563-14.285157-14.28125l-4.070312-2.226563 4.070312-2.226562c6.039063-3.304688 10.980469-8.242188 14.285157-14.285156l2.226562-4.070313 2.226562 4.070313c3.304688 6.039062 8.242188 10.980468 14.28125 14.28125l4.074219 2.230468zm0 0"/><path d="m399.535156 53.171875c4.535156-10.96875-.632812-23.585937-11.589844-28.152344-10.957031-4.566406-23.589843.632813-28.15625 11.585938-4.566406 10.957031.414063 23.53125 11.589844 28.15625 11.175782 4.625 23.191406.429687 28.15625-11.589844zm-25.898437-10.792969c1.6875-3.671875 5.210937-4.898437 8.535156-3.515625 3.324219 1.386719 4.902344 5.214844 3.515625 8.539063-1.386719 3.324218-5.214844 4.898437-8.539062 3.515625-3.320313-1.386719-5.019532-5.269531-3.511719-8.539063zm0 0"/></svg>