<svg height="512pt" viewBox="-38 0 512 512" width="512pt" xmlns="http://www.w3.org/2000/svg"><path d="m376.5 114h-318.5l-27.167969-48h372.835938zm0 0" fill="#b3b6c3"/><path d="m10 10h416v56h-416zm0 0" fill="#d8d8e4"/><path d="m330.898438 114h-225.878907c-38.164062 0-69.105469 30.9375-69.105469 69.101562 0 30.53125 24.75 55.28125 55.28125 55.28125 24.425782 0 44.226563-19.800781 44.226563-44.226562 0-.855469-.039063-1.703125-.101563-2.546875h165.273438c-.058594.84375-.101562 1.691406-.101562 2.546875 0 24.425781 19.800781 44.226562 44.226562 44.226562 30.53125 0 55.28125-24.75 55.28125-55.28125 0-38.164062-30.9375-69.101562-69.101562-69.101562zm0 0" fill="#d8d8e4"/><path d="m135.421875 194.15625h165.035156v48h-165.035156zm0 0" fill="#b3b6c3"/><path d="m135.421875 242.15625h165.035156v259.84375h-165.035156zm0 0" fill="#898998"/><path d="m426 0h-416c-5.523438 0-10 4.476562-10 10v56c0 5.523438 4.476562 10 10 10h15l24.296875 42.925781c1.023437 1.808594 2.570313 3.203125 4.382813 4.070313-16.972657 14.519531-27.765626 36.070312-27.765626 60.105468 0 35.996094 29.285157 65.28125 65.285157 65.28125 12.964843 0 24.882812-4.582031 34.222656-12.203124v265.820312c0 5.523438 4.476563 10 10 10s10-4.476562 10-10v-249.84375h90.023437v249.84375c0 5.523438 4.480469 10 10 10 5.523438 0 10-4.476562 10-10v-249.84375h35.015626v77.511719c0 5.523437 4.476562 10 10 10 5.519531 0 10-4.476563 10-10v-93.515625c9.34375 7.636718 21.273437 12.230468 34.257812 12.230468 35.996094 0 65.28125-29.285156 65.28125-65.28125 0-24.289062-11.015625-46.050781-28.300781-60.570312 1.429687-.875 2.648437-2.097656 3.5-3.605469l24.296875-42.925781h16.503906c5.523438 0 10-4.476562 10-10v-56c0-5.523438-4.476562-10-10-10zm-280.578125 204.15625h145.039063v28h-145.039063zm244.578125-21.054688c0 24.96875-20.3125 45.28125-45.28125 45.28125-18.871094 0-34.226562-15.355468-34.226562-34.226562 0-13.992188 11.386718-25.378906 25.382812-25.378906 10.09375 0 18.304688 8.210937 18.304688 18.304687 0 5.523438 4.476562 10 10 10 5.519531 0 10-4.476562 10-10 0-21.121093-17.183594-38.304687-38.304688-38.304687-21.585938 0-39.6875 15.15625-44.257812 35.378906h-147.316407c-4.570312-20.222656-22.671875-35.378906-44.257812-35.378906-21.121094 0-38.304688 17.183594-38.304688 38.304687 0 5.523438 4.476563 10 10 10 5.523438 0 10-4.476562 10-10 0-10.09375 8.210938-18.304687 18.304688-18.304687 13.996093 0 25.378906 11.386718 25.378906 25.378906 0 18.875-15.351563 34.226562-34.222656 34.226562-24.96875 0-45.285157-20.3125-45.285157-45.28125 0-32.589843 26.515626-59.101562 59.105469-59.101562h225.878907c32.589843 0 59.101562 26.511719 59.101562 59.101562zm-19.332031-79.101562h-306.839844l-15.84375-28h338.53125zm45.332031-48h-396v-36h396zm0 0"/><path d="m190.433594 312.445312c-5.523438 0-10 4.476563-10 10v179.554688c0 5.523438 4.476562 10 10 10 5.523437 0 10-4.476562 10-10v-179.554688c0-5.523437-4.476563-10-10-10zm0 0"/><path d="m190.441406 266.988281c-2.640625 0-5.222656 1.0625-7.082031 2.933594-1.859375 1.859375-2.917969 4.429687-2.917969 7.066406 0 2.632813 1.058594 5.203125 2.917969 7.070313 1.871094 1.863281 4.441406 2.929687 7.082031 2.929687 2.628906 0 5.199219-1.066406 7.070313-2.929687 1.859375-1.859375 2.929687-4.4375 2.929687-7.070313 0-2.636719-1.070312-5.21875-2.929687-7.066406-1.863281-1.871094-4.441407-2.933594-7.070313-2.933594zm0 0"/><path d="m300.457031 402.285156c-5.523437 0-10 4.476563-10 10v89.714844c0 5.523438 4.476563 10 10 10 5.523438 0 10-4.476562 10-10v-89.714844c0-5.523437-4.476562-10-10-10zm0 0"/><path d="m300.460938 362.078125c-2.632813 0-5.210938 1.070313-7.070313 2.933594-1.859375 1.859375-2.929687 4.4375-2.929687 7.066406 0 2.632813 1.070312 5.210937 2.929687 7.070313 1.859375 1.863281 4.4375 2.929687 7.070313 2.929687 2.628906 0 5.210937-1.066406 7.070312-2.929687 1.859375-1.859376 2.929688-4.4375 2.929688-7.070313 0-2.628906-1.070313-5.207031-2.929688-7.066406-1.859375-1.863281-4.441406-2.933594-7.070312-2.933594zm0 0"/></svg>